<svg width="20" height="19" viewBox="0 0 20 19" fill="none" xmlns="http://www.w3.org/2000/svg">
<path d="M8.89152 1.09048C9.24127 0.292233 10.3737 0.292233 10.7234 1.09048L12.6785 5.55264C12.8236 5.88375 13.1361 6.11079 13.4958 6.14645L18.3437 6.62696C19.211 6.71292 19.5609 7.78988 18.9098 8.36918L15.2702 11.6075C15.0001 11.8478 14.8808 12.2151 14.958 12.5683L15.9991 17.3274C16.1853 18.1788 15.2692 18.8444 14.5171 18.4042L10.3126 15.9434C10.0006 15.7608 9.61433 15.7608 9.30234 15.9434L5.09784 18.4042C4.3457 18.8444 3.42958 18.1788 3.61582 17.3274L4.65692 12.5683C4.73417 12.2151 4.61481 11.8478 4.34473 11.6075L0.70512 8.36918C0.054024 7.78988 0.403949 6.71292 1.2712 6.62696L6.11913 6.14645C6.47887 6.11079 6.79135 5.88375 6.93643 5.55264L8.89152 1.09048Z" fill="white"/>
</svg>
